<svg
 xmlns="http://www.w3.org/2000/svg"
 xmlns:xlink="http://www.w3.org/1999/xlink"
 width="7.602cm" height="3.087cm">
<path fill-rule="evenodd"  stroke="rgb(255, 255, 255)" stroke-width="1px" stroke-linecap="butt" stroke-linejoin="miter" fill="rgb(255, 255, 255)"
 d="M190.700,54.199 C177.555,54.199 166.900,43.444 166.900,30.176 C166.900,16.908 177.555,6.152 190.700,6.152 C203.844,6.152 214.500,16.908 214.500,30.176 C214.500,43.444 203.844,54.199 190.700,54.199 ZM130.877,65.434 C127.832,74.400 119.414,80.847 109.500,80.847 C97.018,80.847 86.900,70.634 86.900,58.035 C86.900,45.436 97.018,35.223 109.500,35.223 C113.262,35.223 116.806,36.156 119.926,37.797 C122.556,35.685 125.878,34.415 129.500,34.415 C138.005,34.415 144.900,41.374 144.900,49.960 C144.900,58.075 138.736,64.730 130.877,65.434 ZM125.299,23.110 C119.114,23.110 114.100,18.048 114.100,11.805 C114.100,5.561 119.114,0.500 125.299,0.500 C131.485,0.500 136.500,5.561 136.500,11.805 C136.500,18.048 131.485,23.110 125.299,23.110 ZM32.900,79.636 C15.006,79.636 0.500,64.993 0.500,46.931 C0.500,28.870 15.006,14.227 32.900,14.227 C50.794,14.227 65.300,28.870 65.300,46.931 C65.300,64.993 50.794,79.636 32.900,79.636 ZM196.900,76.809 C199.551,76.809 201.700,78.979 201.700,81.654 C201.700,84.330 199.551,86.500 196.900,86.500 C194.249,86.500 192.100,84.330 192.100,81.654 C192.100,78.979 194.249,76.809 196.900,76.809 Z"/>
</svg>
