<svg
 xmlns="http://www.w3.org/2000/svg"
 xmlns:xlink="http://www.w3.org/1999/xlink"
 width="18.927cm" height="7.567cm">
<path fill-rule="evenodd"  stroke="rgb(255, 255, 255)" stroke-width="1px" stroke-linecap="butt" stroke-linejoin="miter" fill="rgb(255, 255, 255)"
 d="M476.000,133.499 C443.139,133.499 416.499,106.861 416.499,74.000 C416.499,41.139 443.139,14.500 476.000,14.500 C508.861,14.500 535.499,41.139 535.499,74.000 C535.499,106.861 508.861,133.499 476.000,133.499 ZM326.439,161.339 C318.822,183.537 297.782,199.500 273.000,199.500 C241.795,199.500 216.500,174.204 216.500,143.000 C216.500,111.796 241.795,86.500 273.000,86.500 C282.398,86.500 291.253,88.808 299.049,92.867 C305.624,87.635 313.943,84.500 322.999,84.500 C344.262,84.500 361.500,101.737 361.500,123.000 C361.500,143.102 346.090,159.597 326.439,161.339 ZM312.499,56.500 C297.036,56.500 284.499,43.963 284.499,28.500 C284.499,13.035 297.036,0.500 312.499,0.500 C327.964,0.500 340.500,13.035 340.500,28.500 C340.500,43.963 327.964,56.500 312.499,56.500 ZM81.500,196.500 C36.764,196.500 0.500,160.235 0.500,115.500 C0.500,70.765 36.764,34.500 81.500,34.500 C126.234,34.500 162.499,70.765 162.499,115.500 C162.499,160.235 126.234,196.500 81.500,196.500 ZM491.500,189.500 C498.127,189.500 503.500,194.872 503.500,201.500 C503.500,208.127 498.127,213.499 491.500,213.499 C484.872,213.499 479.500,208.127 479.500,201.500 C479.500,194.872 484.872,189.500 491.500,189.500 Z"/>
</svg>
